<svg width="2121" height="901" viewBox="0 0 2121 901" fill="none" xmlns="http://www.w3.org/2000/svg">
<rect x="927" y="439.541" width="442" height="412" rx="30" transform="rotate(-45 927 439.541)" fill="url(#paint0_linear)"/>
<path fill-rule="evenodd" clip-rule="evenodd" d="M979.787 97.49C968.071 109.206 968.071 128.201 979.787 139.916L1059.59 219.719C1071.31 231.435 1090.3 231.435 1102.02 219.719L1190.72 131.016C1202.44 119.3 1202.44 100.306 1190.72 88.5898L1110.92 8.7868C1099.2 -2.92893 1080.21 -2.92893 1068.49 8.7868L979.787 97.49ZM1016.79 96.49C1005.07 108.206 1005.07 127.201 1016.79 138.916L1060.8 182.925C1072.51 194.641 1091.51 194.641 1103.22 182.925L1153.52 132.623C1165.24 120.907 1165.24 101.912 1153.52 90.1962L1109.52 46.1874C1097.8 34.4716 1078.81 34.4717 1067.09 46.1874L1016.79 96.49Z" fill="url(#paint1_linear)"/>
<rect y="727.562" width="262.425" height="244.613" rx="30" transform="rotate(-45 0 727.562)" fill="url(#paint2_linear)" fill-opacity="0.9"/>
<line x1="2061.19" y1="696.785" x2="1563.09" y2="216.427" stroke="url(#paint3_linear)" stroke-opacity="0.1" stroke-width="10"/>
<line x1="2073.89" y1="794.395" x2="1575.79" y2="314.038" stroke="url(#paint4_linear)" stroke-opacity="0.1" stroke-width="10"/>
<line x1="1894.63" y1="691.385" x2="1396.53" y2="211.027" stroke="url(#paint5_linear)" stroke-opacity="0.1" stroke-width="10"/>
<defs>
<linearGradient id="paint0_linear" x1="662" y1="817.041" x2="1369" y2="645.541" gradientUnits="userSpaceOnUse">
<stop stop-color="#FF512F"/>
<stop offset="1" stop-color="#F09819"/>
</linearGradient>
<linearGradient id="paint1_linear" x1="942.074" y1="114.574" x2="1211.57" y2="91.5736" gradientUnits="userSpaceOnUse">
<stop stop-color="#1D976C"/>
<stop offset="1" stop-color="#93F9B9"/>
</linearGradient>
<linearGradient id="paint2_linear" x1="257.077" y1="856.565" x2="-14.4516" y2="850.909" gradientUnits="userSpaceOnUse">
<stop stop-color="#EB3349"/>
<stop offset="1" stop-color="#F45C43"/>
</linearGradient>
<linearGradient id="paint3_linear" x1="2065.01" y1="692.826" x2="1566.91" y2="212.468" gradientUnits="userSpaceOnUse">
<stop stop-color="#1D976C"/>
<stop offset="1" stop-color="#93F9B9"/>
</linearGradient>
<linearGradient id="paint4_linear" x1="2077.71" y1="790.436" x2="1579.61" y2="310.079" gradientUnits="userSpaceOnUse">
<stop stop-color="#D31027"/>
<stop offset="1" stop-color="#EA384D"/>
</linearGradient>
<linearGradient id="paint5_linear" x1="1898.45" y1="687.426" x2="1400.35" y2="207.069" gradientUnits="userSpaceOnUse">
<stop stop-color="#E65C00"/>
<stop offset="1" stop-color="#F9D423"/>
</linearGradient>
</defs>
</svg>
