<svg width="16" height="21" viewBox="0 0 16 21" fill="none" xmlns="http://www.w3.org/2000/svg">
<path d="M0 0.801758V8.84493H6.2966C6.2966 8.80852 6.29244 8.77211 6.29244 8.73674C6.29244 8.28528 6.35589 7.84837 6.46408 7.43124H1.41473V2.21649H14.5863V4.49671C15.1543 4.90864 15.637 5.42981 16 6.03315V0.801758H0Z" fill="#030104" fill-opacity="0.3"/>
<path d="M0 7.80176V15.8449H6.2966C6.2966 15.8085 6.29244 15.7721 6.29244 15.7367C6.29244 15.2853 6.35589 14.8484 6.46408 14.4312H1.41473V9.21649H14.5863V11.4967C15.1543 11.9086 15.637 12.4298 16 13.0331V7.80176H0Z" fill="#030104"/>
<path d="M11.6466 11.4925C9.24679 11.4925 7.29529 13.445 7.29529 15.8449C7.29529 18.2458 9.24679 20.1983 11.6466 20.1983C14.0486 20.1983 16.0001 18.2458 16.0001 15.8449C16.0001 13.445 14.0486 11.4925 11.6466 11.4925ZM11.6466 19.0166C9.90006 19.0166 8.47701 17.5946 8.47701 15.8449C8.47701 14.0973 9.90006 12.6732 11.6466 12.6732C13.3984 12.6732 14.8194 14.0973 14.8194 15.8449C14.8194 17.5946 13.3984 19.0166 11.6466 19.0166Z" fill="#030104"/>
<path d="M13.6855 15.1115H9.68677V16.2599H13.6855V15.1115Z" fill="#030104"/>
</svg>
