<svg width="20" height="17" viewBox="0 0 20 17" fill="none" xmlns="http://www.w3.org/2000/svg">
<path d="M7 16.0352L15.0431 16.0757L15.0748 9.77917C15.0384 9.77899 15.002 9.78297 14.9666 9.78279C14.5151 9.78051 14.0786 9.71486 13.662 9.60457L13.6365 14.6539L8.42184 14.6276L8.48822 1.45616L10.7684 1.46765C11.1832 0.901764 11.7068 0.421724 12.312 0.0617236L7.08063 0.0353594L7 16.0352Z" fill="#030104"/>
<path d="M0 16.0352L8.04307 16.0757L8.0748 9.77917C8.03839 9.77899 8.00196 9.78297 7.9666 9.78279C7.51514 9.78051 7.07856 9.71486 6.66197 9.60457L6.63652 14.6539L1.42184 14.6276L1.48822 1.45616L3.76841 1.46765C4.18321 0.901764 4.70679 0.421724 5.31196 0.0617236L0.0806339 0.0353594L0 16.0352Z" fill="#030104" fill-opacity="0.3"/>
<path d="M10.7493 4.40732C10.7373 6.80713 12.6799 8.76845 15.0797 8.78054C17.4806 8.79264 19.4429 6.85101 19.455 4.45119C19.4671 2.0493 17.5245 0.0879831 15.1236 0.0758836C12.7238 0.0637893 10.7615 2.00542 10.7493 4.40732ZM18.2733 4.44524C18.2645 6.19178 16.8354 7.60765 15.0857 7.59884C13.3381 7.59003 11.9212 6.15982 11.93 4.41327C11.9388 2.66152 13.3701 1.24774 15.1177 1.25655C16.8673 1.26536 18.2822 2.69349 18.2733 4.44524Z" fill="#030104"/>
<path d="M14.3787 2.38671L14.3585 6.38536L15.5069 6.39115L15.5271 2.3925L14.3787 2.38671Z" fill="#030104"/>
</svg>
