<svg width="16" height="14" viewBox="0 0 16 14" fill="none" xmlns="http://www.w3.org/2000/svg">
<path d="M0 0.801758V8.84493H6.2966C6.2966 8.80852 6.29244 8.77211 6.29244 8.73674C6.29244 8.28528 6.35589 7.84837 6.46408 7.43124H1.41473V2.21649H14.5863V4.49671C15.1543 4.90864 15.637 5.42981 16 6.03315V0.801758H0Z" fill="#030104"/>
<path d="M11.6466 4.49251C9.24679 4.49251 7.29529 6.44505 7.29529 8.84489C7.29529 11.2458 9.24679 13.1983 11.6466 13.1983C14.0486 13.1983 16.0001 11.2458 16.0001 8.84489C16.0001 6.44505 14.0486 4.49251 11.6466 4.49251ZM11.6466 12.0166C9.90006 12.0166 8.47701 10.5946 8.47701 8.84489C8.47701 7.09728 9.90006 5.67319 11.6466 5.67319C13.3984 5.67319 14.8194 7.09728 14.8194 8.84489C14.8194 10.5946 13.3984 12.0166 11.6466 12.0166Z" fill="#030104"/>
<path d="M13.6855 8.11151H9.68677V9.25994H13.6855V8.11151Z" fill="#030104"/>
</svg>
