<svg width="18" height="17" viewBox="0 0 18 17" fill="none" xmlns="http://www.w3.org/2000/svg">
<path d="M15.5 17H1.50003C0.425468 17 5.80685e-06 17.0121 5.80685e-06 15.9375V1.68266C5.80685e-06 0.608095 -0.0120503 0 1.06251 0L16 5.77094e-06C17.0746 5.77094e-06 17 0.425438 17 1.5V15.9375C17 17.0121 16.5746 17 15.5 17ZM1.50001 1.0625C1.01195 1.0625 1.06251 1.4599 1.06251 1.94796V15.052C1.06251 15.5401 1.01197 15.9375 1.50003 15.9375H15.5C15.9881 15.9375 15.9375 15.5401 15.9375 15.052V1.94796C15.9375 1.4599 15.9881 1.0625 15.5 1.0625H1.50001Z" fill="black"/>
<path d="M16.4688 13.1042H0.53125C0.237999 13.1042 0 12.8662 0 12.573C0 12.2797 0.237999 12.0417 0.53125 12.0417H16.4688C16.762 12.0417 17 12.2797 17 12.573C17 12.8662 16.762 13.1042 16.4688 13.1042Z" fill="black"/>
<path d="M16.4688 4.95825H0.53125C0.237999 4.95825 0 4.72025 0 4.427C0 4.13375 0.237999 3.89575 0.53125 3.89575H16.4688C16.762 3.89575 17 4.13375 17 4.427C17 4.72025 16.762 4.95825 16.4688 4.95825Z" fill="black"/>
<path d="M13.6355 9.03125H3.36462C3.07137 9.03125 2.83337 8.79325 2.83337 8.5C2.83337 8.20675 3.07137 7.96875 3.36462 7.96875H13.6355C13.9288 7.96875 14.1668 8.20675 14.1668 8.5C14.1668 8.79325 13.9288 9.03125 13.6355 9.03125Z" fill="black"/>
<path d="M11.6875 10.9791C11.5514 10.9791 11.4155 10.9274 11.312 10.8232C11.1045 10.6157 11.1045 10.2793 11.312 10.0717L12.8846 8.49926L11.312 6.92665C11.1045 6.71913 11.1045 6.38269 11.312 6.17517C11.5197 5.96765 11.8561 5.96765 12.0636 6.17517L14.0116 8.12313C14.2191 8.33065 14.2191 8.66709 14.0116 8.87461L12.0636 10.8226C11.9595 10.9274 11.8235 10.9791 11.6875 10.9791Z" fill="black"/>
<path d="M5.31245 10.9791C5.17639 10.9791 5.04047 10.9273 4.93697 10.8232L2.98914 8.87535C2.78162 8.6677 2.78162 8.33126 2.98914 8.12374L4.93697 6.17578C5.14462 5.96826 5.48106 5.96826 5.68858 6.17578C5.8961 6.38343 5.8961 6.71987 5.68858 6.92739L4.1161 8.49987L5.68858 10.0723C5.8961 10.2799 5.8961 10.6163 5.68858 10.824C5.58443 10.9273 5.4485 10.9791 5.31245 10.9791Z" fill="black"/>
<path d="M8.5 4.95829C8.20675 4.95829 7.96875 4.72029 7.96875 4.42704V0.53125C7.96875 0.237999 8.20675 0 8.5 0C8.79325 0 9.03125 0.237999 9.03125 0.53125V4.42704C9.03125 4.72029 8.79325 4.95829 8.5 4.95829Z" fill="black"/>
<path d="M8.5 17C8.20675 17 7.96875 16.762 7.96875 16.4688V12.573C7.96875 12.2797 8.20675 12.0417 8.5 12.0417C8.79325 12.0417 9.03125 12.2797 9.03125 12.573V16.4688C9.03125 16.762 8.79325 17 8.5 17Z" fill="black"/>
</svg>
