<svg width="17" height="22" viewBox="0 0 17 22" fill="none" xmlns="http://www.w3.org/2000/svg">
<path d="M4.11386 0.5L6.89387 0.5L5.50386 1.66778L4.11386 0.5Z" fill="black" stroke="black"/>
<path d="M3.80195 4.40067V3.90044L3.30172 3.90067L1.10222 3.90167L0.602453 3.9019V4.40167L0.602453 12.0998V12.5998H1.10245H3.30195H3.80195V12.0998L3.80195 4.40067ZM0.602453 20.8974V21.3974H1.10245H3.30195H3.80195V20.8974L3.80195 13.1995V12.6995H3.30195H1.10245H0.602453V13.1995L0.602453 20.8974ZM3.90173 4.40066L3.90172 20.8974C3.90172 21.0196 3.90267 21.1219 3.90348 21.2095C3.90458 21.3286 3.90543 21.4206 3.90332 21.4988C3.82514 21.5009 3.73312 21.5 3.61405 21.4989C3.52642 21.4981 3.42415 21.4972 3.30195 21.4972H1.10245C0.980183 21.4972 0.877863 21.4981 0.79021 21.4989C0.671284 21.5 0.57936 21.5009 0.501246 21.4988C0.499147 21.4207 0.499995 21.3288 0.501097 21.21C0.501911 21.1223 0.50286 21.0199 0.50286 20.8975L0.502872 4.40067C0.502872 4.27837 0.501925 4.17604 0.501114 4.08839C0.500018 3.96987 0.49917 3.8782 0.501247 3.80029C0.578947 3.79824 0.670203 3.79911 0.788035 3.80022C0.876193 3.80105 0.979227 3.80202 1.10259 3.80202L3.30202 3.80203C3.42539 3.80203 3.52842 3.80106 3.61659 3.80023C3.73441 3.79911 3.82566 3.79825 3.90336 3.8003C3.90544 3.8782 3.90459 3.96988 3.90349 4.08839C3.90268 4.17604 3.90173 4.27837 3.90173 4.40066Z" fill="black" stroke="black"/>
<path d="M16.5013 20.8946L16.5013 4.39885C16.5013 3.18583 16.6146 3.29913 15.4016 3.29913L7.70363 3.29914C6.49061 3.29914 6.60392 3.18583 6.60392 4.39885L6.60389 20.8946C6.60389 22.1076 6.49059 21.9943 7.70361 21.9943H15.4017C16.6147 21.9943 16.5013 22.1076 16.5013 20.8946ZM12.1025 20.8946L12.1025 13.1966H15.4017L15.4016 20.8946H12.1025ZM15.4016 4.39885L15.4016 12.0969H12.1025L12.1025 4.39885L15.4016 4.39885ZM11.0028 4.39885L11.0028 12.0969H7.70363L7.70364 4.39885L11.0028 4.39885ZM7.70363 13.1966H11.0028L11.0028 20.8946H7.70364L7.70363 13.1966Z" fill="black"/>
</svg>
