<svg width="22" height="17" viewBox="0 0 22 17" fill="none" xmlns="http://www.w3.org/2000/svg">
<path d="M0.5 12.7892V10.0092L1.66778 11.3992L0.5 12.7892Z" fill="black" stroke="black"/>
<path d="M4.40071 13.1012H3.90049L3.90071 13.6014L3.90172 15.8009L3.90195 16.3007H4.40172H12.0998H12.5998V15.8007V13.6012V13.1012H12.0998H4.40071ZM20.8975 16.3007H21.3975V15.8007V13.6012V13.1012H20.8975H13.1995H12.6995V13.6012V15.8007V16.3007H13.1995H20.8975ZM4.40071 13.0014L20.8975 13.0014C21.0197 13.0014 21.122 13.0005 21.2096 12.9997C21.3286 12.9986 21.4207 12.9977 21.4988 12.9998C21.5009 13.078 21.5001 13.17 21.499 13.2891C21.4982 13.3767 21.4972 13.479 21.4972 13.6012V15.8007C21.4972 15.923 21.4982 16.0253 21.499 16.1129C21.5001 16.2319 21.5009 16.3238 21.4988 16.4019C21.4208 16.404 21.3289 16.4032 21.21 16.4021C21.1223 16.4012 21.0199 16.4003 20.8975 16.4003L4.40072 16.4003C4.27842 16.4003 4.17609 16.4012 4.08844 16.402C3.96992 16.4031 3.87825 16.404 3.80034 16.4019C3.79829 16.3242 3.79916 16.2329 3.80027 16.1151C3.8011 16.027 3.80207 15.9239 3.80207 15.8006L3.80208 13.6011C3.80208 13.4778 3.80111 13.3747 3.80028 13.2866C3.79916 13.1687 3.7983 13.0775 3.80035 12.9998C3.87825 12.9977 3.96993 12.9986 4.08844 12.9997C4.17609 13.0005 4.27842 13.0014 4.40071 13.0014Z" fill="black" stroke="black"/>
<path d="M20.8947 0.40173H4.39891C3.18589 0.40173 3.29919 0.288477 3.29919 1.50149L3.2992 9.19945C3.2992 10.4125 3.18589 10.2992 4.39891 10.2992L20.8947 10.2992C22.1077 10.2992 21.9944 10.4125 21.9944 9.19947V1.50143C21.9944 0.288409 22.1077 0.40173 20.8947 0.40173ZM20.8947 4.80061L13.1966 4.80057V1.50143L20.8947 1.50146V4.80061ZM4.39891 1.50144H12.0969V4.80058H4.39891V1.50144ZM4.39891 5.9003H12.0969V9.19945L4.39891 9.19943V5.9003ZM13.1966 9.19945V5.90029L20.8947 5.90032V9.19943L13.1966 9.19945Z" fill="black"/>
</svg>
