<svg width="23" height="17" viewBox="0 0 23 17" fill="none" xmlns="http://www.w3.org/2000/svg">
<path d="M1.11731 7.29703V4.51702L2.28509 5.90702L1.11731 7.29703Z" fill="black" stroke="black"/>
<path d="M21.5377 4.24451L22.0379 4.24556L22.0387 3.74533L22.0423 1.54584L22.0431 1.04607L21.5434 1.04502L13.8453 1.02892L13.3453 1.02787L13.3443 1.52787L13.3397 3.72737L13.3386 4.22736L13.8386 4.22841L21.5377 4.24451ZM5.04767 1.01052L4.54767 1.00947L4.54663 1.50947L4.54203 3.70896L4.54098 4.20896L5.04098 4.21001L12.7389 4.22611L13.2389 4.22716L13.2399 3.72716L13.2445 1.52766L13.2456 1.02767L12.7456 1.02662L5.04767 1.01052ZM21.5375 4.3443L5.04077 4.30978C4.91856 4.30952 4.81627 4.31026 4.72863 4.31088C4.60957 4.31173 4.51756 4.31239 4.43939 4.31012C4.43745 4.23193 4.43848 4.13992 4.43983 4.02085C4.44082 3.93323 4.44198 3.83095 4.44224 3.70876L4.44684 1.50926C4.44709 1.38699 4.44636 1.28467 4.44574 1.19702C4.44488 1.07809 4.44423 0.986162 4.44649 0.908053C4.52458 0.906118 4.61646 0.907158 4.73529 0.908509C4.82301 0.909505 4.92541 0.910669 5.04781 0.910925L21.5446 0.945443C21.6669 0.945699 21.7692 0.944966 21.8569 0.944338C21.9754 0.943489 22.0671 0.942833 22.145 0.945073C22.1468 1.02278 22.1458 1.11403 22.1444 1.23186C22.1434 1.32002 22.1422 1.42305 22.142 1.54641L22.1374 3.74583C22.1371 3.8692 22.1379 3.97224 22.1385 4.06041C22.1394 4.17823 22.14 4.26949 22.1378 4.34718C22.0599 4.34909 21.9683 4.34805 21.8497 4.34671C21.7621 4.34571 21.6598 4.34455 21.5375 4.3443Z" fill="black" stroke="black"/>
<path d="M5.01726 16.9095L21.513 16.944C22.726 16.9465 22.6124 17.0595 22.615 15.8465L22.6311 8.14859C22.6336 6.93557 22.7467 7.04911 21.5337 7.04658L5.03796 7.01205C3.82495 7.00951 3.93848 6.89645 3.93595 8.10946L3.91984 15.8075C3.91731 17.0205 3.80424 16.9069 5.01726 16.9095ZM5.02646 12.5106L12.7245 12.5268L12.7176 15.8259L5.01956 15.8098L5.02646 12.5106ZM21.5153 15.8443L13.8173 15.8282L13.8242 12.529L21.5222 12.5451L21.5153 15.8443ZM21.5245 11.4454L13.8265 11.4293L13.8334 8.13019L21.5314 8.1463L21.5245 11.4454ZM12.7337 8.12789L12.7268 11.427L5.02876 11.4109L5.03566 8.1118L12.7337 8.12789Z" fill="black"/>
</svg>
