<svg width="17" height="22" viewBox="0 0 17 22" fill="none" xmlns="http://www.w3.org/2000/svg">
<path d="M9.23465 0.188265C9.23453 0.188165 9.23442 0.188067 9.2343 0.187968L9.23465 0.188265ZM12.3838 0.5L9.60552 0.5L10.9947 1.66765L12.3838 0.5Z" fill="black" stroke="black"/>
<path d="M12.6955 4.40067V3.90044L13.1958 3.90067L15.3941 3.90167L15.8939 3.9019V4.40167L15.8939 12.0998V12.5998H15.3939H13.1955H12.6955V12.0998L12.6955 4.40067ZM15.8939 20.8974V21.3974H15.3939H13.1955H12.6955V20.8974L12.6955 13.1995V12.6995H13.1955H15.3939H15.8939V13.1995L15.8939 20.8974ZM12.5963 4.40066L12.5963 20.8974C12.5963 21.0196 12.5954 21.1219 12.5946 21.2095C12.5935 21.3286 12.5926 21.4206 12.5947 21.4988C12.6728 21.5009 12.7647 21.5 12.8836 21.4989C12.9712 21.4981 13.0734 21.4972 13.1955 21.4972H15.3939C15.5161 21.4972 15.6184 21.4981 15.706 21.4989C15.8248 21.5 15.9165 21.5009 15.9946 21.4988C15.9967 21.4207 15.9958 21.3288 15.9947 21.21C15.9939 21.1223 15.9929 21.0199 15.9929 20.8975L15.9929 4.40067C15.9929 4.27838 15.9939 4.17605 15.9947 4.08841C15.9958 3.96988 15.9966 3.8782 15.9946 3.80029C15.917 3.79825 15.8258 3.79911 15.7082 3.80022C15.6201 3.80105 15.5171 3.80202 15.3938 3.80202L13.1955 3.80203C13.0721 3.80203 12.9691 3.80106 12.881 3.80023C12.7634 3.79911 12.6723 3.79825 12.5947 3.80029C12.5926 3.8782 12.5935 3.96988 12.5946 4.08841C12.5954 4.17605 12.5963 4.27838 12.5963 4.40066Z" fill="black" stroke="black"/>
<path d="M0.00280255 20.8946L0.00280255 4.39885C0.00280255 3.18583 -0.110393 3.29913 1.102 3.29913L8.79603 3.29914C10.0084 3.29914 9.89518 3.18583 9.89518 4.39885L9.89521 20.8946C9.89521 22.1076 10.0084 21.9943 8.79605 21.9943H1.10194C-0.11046 21.9943 0.00280255 22.1076 0.00280255 20.8946ZM4.39943 20.8946L4.3994 13.1966H1.10194L1.10197 20.8946H4.39943ZM1.10195 4.39885L1.10195 12.0969H4.39941L4.39941 4.39885L1.10195 4.39885ZM5.49857 4.39885L5.49857 12.0969H8.79603L8.79602 4.39885L5.49857 4.39885ZM8.79603 13.1966H5.49855L5.49859 20.8946H8.79602L8.79603 13.1966Z" fill="black"/>
</svg>
