<svg width="18" height="17" viewBox="0 0 18 17" fill="none" xmlns="http://www.w3.org/2000/svg">
<path d="M15.5 17H1.50003C0.425468 17 5.80685e-06 17.0121 5.80685e-06 15.9375V1.68266C5.80685e-06 0.608095 -0.0120503 0 1.06251 0L16 5.77094e-06C17.0746 5.77094e-06 17 0.425438 17 1.5V15.9375C17 17.0121 16.5746 17 15.5 17ZM1.50001 1.0625C1.01195 1.0625 1.06251 1.4599 1.06251 1.94796V15.052C1.06251 15.5401 1.01197 15.9375 1.50003 15.9375H15.5C15.9881 15.9375 15.9375 15.5401 15.9375 15.052V1.94796C15.9375 1.4599 15.9881 1.0625 15.5 1.0625H1.50001Z" fill="black"/>
<path d="M16.4688 13.1042H0.53125C0.237999 13.1042 0 12.8662 0 12.573C0 12.2797 0.237999 12.0417 0.53125 12.0417H16.4688C16.762 12.0417 17 12.2797 17 12.573C17 12.8662 16.762 13.1042 16.4688 13.1042Z" fill="black"/>
<path d="M16.4688 4.95825H0.53125C0.237999 4.95825 0 4.72025 0 4.427C0 4.13375 0.237999 3.89575 0.53125 3.89575H16.4688C16.762 3.89575 17 4.13375 17 4.427C17 4.72025 16.762 4.95825 16.4688 4.95825Z" fill="black"/>
<path d="M8.5 14C8.224 14 8 13.328 8 12.5V1.50001C8 0.672003 8.224 0 8.5 0C8.776 0 9 0.672003 9 1.50001V12.5C9 13.328 8.776 14 8.5 14Z" fill="black"/>
<path d="M8.5 17C8.20675 17 7.96875 16.762 7.96875 16.4688V12.573C7.96875 12.2797 8.20675 12.0417 8.5 12.0417C8.79325 12.0417 9.03125 12.2797 9.03125 12.573V16.4688C9.03125 16.762 8.79325 17 8.5 17Z" fill="black"/>
<path d="M10.253 10.2739C10.0457 10.4813 9.70909 10.4813 9.50173 10.2739L6.74699 7.51917C6.53963 7.31181 6.53963 6.97523 6.74699 6.76787C6.95435 6.56051 7.29093 6.56051 7.49829 6.76787L10.253 9.52261C10.4604 9.72997 10.4604 10.0666 10.253 10.2739Z" fill="black"/>
</svg>
