<svg width="23" height="23" viewBox="0 0 23 23" fill="none" xmlns="http://www.w3.org/2000/svg">
<path d="M1.67702 1H8.86452C9.23724 1 9.54173 1.30462 9.54173 1.67702V5.98952C9.54173 6.36217 9.23717 6.66673 8.86452 6.66673H1.67702C1.30462 6.66673 1 6.36224 1 5.98952V1.67702C1 1.30455 1.30455 1 1.67702 1Z" stroke="#4D4D4D" stroke-width="2"/>
<path d="M1.67702 10.5833H8.86452C9.23717 10.5833 9.54173 10.8878 9.54173 11.2605V21.323C9.54173 21.6954 9.23724 22 8.86452 22H1.67702C1.30455 22 1 21.6955 1 21.323V11.2605C1 10.8878 1.30462 10.5833 1.67702 10.5833Z" stroke="#4D4D4D" stroke-width="2"/>
<path d="M14.1355 16.3333H21.323C21.6954 16.3333 22 16.6378 22 17.0105V21.323C22 21.6955 21.6955 22 21.323 22H14.1355C13.7628 22 13.4583 21.6954 13.4583 21.323V17.0105C13.4583 16.6378 13.7628 16.3333 14.1355 16.3333Z" stroke="#4D4D4D" stroke-width="2"/>
<path d="M20.323 1H21.323C21.6955 1 22 1.30455 22 1.67702V11.7395C22 12.1122 21.6954 12.4167 21.323 12.4167H14.1355C13.7628 12.4167 13.4583 12.1122 13.4583 11.7395V1.67702C13.4583 1.30462 13.7628 1 14.1355 1H20.323Z" stroke="#4D4D4D" stroke-width="2"/>
</svg>
