<svg width="103" height="90" viewBox="0 0 103 90" fill="none" xmlns="http://www.w3.org/2000/svg">
<path d="M43.5621 7.46731L4.24415 73.0795C3.4335 74.4827 3.00458 76.0738 3.00004 77.6942C2.9955 79.3146 3.41551 80.908 4.21828 82.3158C5.02105 83.7237 6.1786 84.8968 7.57577 85.7186C8.97294 86.5404 10.561 86.9822 12.182 87H90.818C92.439 86.9822 94.0271 86.5404 95.4242 85.7186C96.8214 84.8968 97.9789 83.7237 98.7817 82.3158C99.5845 80.908 100.005 79.3146 100 77.6942C99.9954 76.0738 99.5665 74.4827 98.7559 73.0795L59.4379 7.46731C58.6103 6.10359 57.4451 4.97608 56.0547 4.19358C54.6643 3.41108 53.0956 3 51.5 3C49.9044 3 48.3357 3.41108 46.9453 4.19358C45.5549 4.97608 44.3897 6.10359 43.5621 7.46731V7.46731Z" stroke="#D31027" stroke-opacity="0.7" stroke-width="5" stroke-linecap="round" stroke-linejoin="round"/>
</svg>
